<svg width="102" height="18" viewBox="0 0 102 18" fill="none" xmlns="http://www.w3.org/2000/svg">
<g id="Social">
<g id="1">
<g id="logo-twitter 2">
<g id="Group">
<path id="Vector" d="M14.4114 4.82472C13.871 5.06376 13.3005 5.21316 12.7 5.3028C13.3005 4.94424 13.7809 4.37651 13.9911 3.68927C13.4206 4.01795 12.7901 4.25699 12.0996 4.40639C11.5591 3.83867 10.7785 3.4801 9.93786 3.4801C8.31658 3.4801 6.99553 4.79484 6.99553 6.40838C6.99553 6.64742 7.02556 6.85658 7.08561 7.06575C4.65368 6.94622 2.46195 5.78089 0.990784 3.98807C0.750594 4.43627 0.600475 4.91436 0.600475 5.45221C0.600475 6.46814 1.11088 7.36455 1.92152 7.9024C1.44114 7.87252 0.990784 7.753 0.570451 7.54383V7.57371C0.570451 9.00797 1.59126 10.2032 2.94233 10.4721C2.70214 10.5319 2.43192 10.5617 2.16171 10.5617C1.98157 10.5617 1.7714 10.5319 1.59126 10.502C1.98157 11.6673 3.06242 12.5339 4.35344 12.5339C3.33264 13.3107 2.07164 13.7888 0.690546 13.7888C0.450356 13.7888 0.210166 13.7888 0 13.7589C1.32105 14.5956 2.85226 15.0737 4.53359 15.0737C9.96789 15.0737 12.9402 10.5916 12.9402 6.70718C12.9402 6.58766 12.9402 6.43826 12.9402 6.31874C13.5107 5.93029 14.0211 5.42233 14.4114 4.82472Z" fill="white"/>
</g>
</g>
</g>
<g id="2">
<g id="logo-fb-simple 2">
<g id="Group_2">
<path id="Vector_2" d="M47.7522 16.7867V9.65831H45.3418V6.88024H47.7522V4.83149C47.7522 2.45393 49.2113 1.1593 51.3424 1.1593C52.3632 1.1593 53.2406 1.23494 53.4963 1.26875V3.75344L52.0182 3.75411C50.8592 3.75411 50.6348 4.30223 50.6348 5.10656V6.88024H53.3989L53.039 9.65831H50.6348V16.7867H47.7522Z" fill="white"/>
</g>
</g>
</g>
<g id="3">
<g id="logo-instagram 1">
<g id="Group_3">
<path id="Vector_3" d="M93.1627 1.56679C95.4955 1.56679 95.7717 1.57549 96.6932 1.6173C97.2473 1.62405 97.7961 1.72531 98.3158 1.91667C98.6927 2.06132 99.0349 2.2829 99.3206 2.56715C99.6062 2.8514 99.8288 3.19203 99.9742 3.5671C100.166 4.0843 100.268 4.63049 100.275 5.18192C100.317 6.09905 100.326 6.37399 100.326 8.6956C100.326 11.0172 100.317 11.2921 100.275 12.2093C100.268 12.7607 100.166 13.3069 99.9742 13.8241C99.8288 14.1992 99.6062 14.5398 99.3206 14.824C99.0349 15.1083 98.6927 15.3299 98.3158 15.4745C97.7961 15.6659 97.2473 15.7671 96.6932 15.7739C95.7721 15.8153 95.4959 15.8244 93.1627 15.8244C90.8295 15.8244 90.5533 15.8157 89.6322 15.7739C89.0781 15.7671 88.5293 15.6659 88.0096 15.4745C87.6327 15.3299 87.2905 15.1083 87.0048 14.824C86.7192 14.5398 86.4966 14.1992 86.3512 13.8241C86.159 13.3069 86.0572 12.7607 86.0504 12.2093C86.0088 11.2921 85.9997 11.0172 85.9997 8.6956C85.9997 6.37399 86.0084 6.09905 86.0504 5.18192C86.0572 4.63049 86.159 4.0843 86.3512 3.5671C86.4966 3.19203 86.7192 2.8514 87.0048 2.56715C87.2905 2.2829 87.6327 2.06132 88.0096 1.91667C88.5293 1.72531 89.0781 1.62405 89.6322 1.6173C90.5537 1.5759 90.8299 1.56679 93.1627 1.56679ZM93.1627 0C90.7912 0 90.4925 0.00993733 89.5606 0.0521711C88.8354 0.0665256 88.118 0.20317 87.4388 0.45629C86.8561 0.674774 86.3283 1.01716 85.8923 1.45955C85.4474 1.89364 85.1031 2.41917 84.8834 2.99943C84.6291 3.67541 84.4918 4.38943 84.4774 5.11111C84.4358 6.03777 84.4258 6.33506 84.4258 8.69519C84.4258 11.0553 84.4358 11.3526 84.4782 12.2801C84.4926 13.0018 84.6299 13.7158 84.8843 14.3918C85.1037 14.972 85.4477 15.4975 85.8923 15.9317C86.3286 16.3741 86.8566 16.7165 87.4396 16.9349C88.1188 17.188 88.8363 17.3247 89.5614 17.339C90.4934 17.3804 90.7908 17.3912 93.1635 17.3912C95.5362 17.3912 95.8337 17.3813 96.7656 17.339C97.4908 17.3247 98.2082 17.188 98.8875 16.9349C99.4677 16.7111 99.9945 16.3692 100.434 15.9312C100.874 15.4931 101.217 14.9685 101.442 14.3909C101.696 13.715 101.834 13.0009 101.848 12.2793C101.89 11.3526 101.9 11.0553 101.9 8.69519C101.9 6.33506 101.89 6.03777 101.847 5.11029C101.833 4.3886 101.695 3.67458 101.441 2.9986C101.222 2.41841 100.878 1.89289 100.433 1.45872C99.9968 1.01623 99.4688 0.673839 98.8858 0.455462C98.2066 0.202341 97.4891 0.0656975 96.764 0.051343C95.8329 0.00993739 95.5341 0 93.1627 0Z" fill="white"/>
<path id="Vector_4" d="M93.1604 4.22986C92.2731 4.22986 91.4056 4.49174 90.6678 4.98238C89.93 5.47302 89.3549 6.17039 89.0154 6.98629C88.6758 7.8022 88.5869 8.7 88.76 9.56616C88.9332 10.4323 89.3605 11.2279 89.9879 11.8524C90.6154 12.4769 91.4148 12.9021 92.2851 13.0744C93.1555 13.2467 94.0576 13.1583 94.8774 12.8203C95.6972 12.4824 96.3979 11.9101 96.8909 11.1758C97.3839 10.4415 97.6471 9.57817 97.6471 8.69504C97.6471 7.5108 97.1744 6.37507 96.333 5.53768C95.4916 4.7003 94.3504 4.22986 93.1604 4.22986ZM93.1604 11.5934C92.5844 11.5934 92.0214 11.4235 91.5425 11.105C91.0635 10.7865 90.6903 10.3338 90.4698 9.80421C90.2494 9.2746 90.1917 8.69183 90.3041 8.12959C90.4165 7.56736 90.6938 7.05092 91.1011 6.64557C91.5084 6.24022 92.0273 5.96418 92.5923 5.85234C93.1572 5.7405 93.7428 5.7979 94.2749 6.01728C94.8071 6.23665 95.2619 6.60814 95.5819 7.08478C95.9019 7.56142 96.0727 8.1218 96.0727 8.69504C96.0727 9.46375 95.7659 10.201 95.2198 10.7445C94.6736 11.2881 93.9328 11.5934 93.1604 11.5934Z" fill="white"/>
<path id="Vector_5" d="M97.8258 5.09734C98.4048 5.09734 98.8742 4.63019 98.8742 4.05392C98.8742 3.47765 98.4048 3.0105 97.8258 3.0105C97.2467 3.0105 96.7773 3.47765 96.7773 4.05392C96.7773 4.63019 97.2467 5.09734 97.8258 5.09734Z" fill="white"/>
</g>
</g>
</g>
</g>
</svg>
