<svg width="20" height="20" viewBox="0 0 20 20" fill="none" xmlns="http://www.w3.org/2000/svg">
<g id="ic:baseline-access-time">
<path id="Vector" d="M9.99101 1.66669C5.39101 1.66669 1.66602 5.40002 1.66602 10C1.66602 14.6 5.39101 18.3334 9.99101 18.3334C14.5993 18.3334 18.3327 14.6 18.3327 10C18.3327 5.40002 14.5993 1.66669 9.99101 1.66669ZM9.99935 16.6667C6.31601 16.6667 3.33268 13.6834 3.33268 10C3.33268 6.31669 6.31601 3.33335 9.99935 3.33335C13.6827 3.33335 16.666 6.31669 16.666 10C16.666 13.6834 13.6827 16.6667 9.99935 16.6667Z" fill="#776E6E"/>
<path id="Vector_2" d="M10.416 5.83331H9.16602V10.8333L13.541 13.4583L14.166 12.4333L10.416 10.2083V5.83331Z" fill="#776E6E"/>
</g>
</svg>
